<!DOCTYPE svg PUBLIC "-//W3C//DTD SVG 1.1//EN" "http://www.w3.org/Graphics/SVG/1.1/DTD/svg11.dtd">
<!-- Uploaded to: SVG Repo, www.svgrepo.com, Transformed by: SVG Repo Mixer Tools -->
<svg fill="#41CD52" height="800px" width="800px" version="1.1" id="Layer_1" xmlns="http://www.w3.org/2000/svg" xmlns:xlink="http://www.w3.org/1999/xlink" viewBox="0 0 512 512" xml:space="preserve" stroke="#41CD52">
<g id="SVGRepo_bgCarrier" stroke-width="0"/>
<g id="SVGRepo_tracerCarrier" stroke-linecap="round" stroke-linejoin="round"/>
<g id="SVGRepo_iconCarrier"> <g> <g> <path d="M391.305,142.234C374.98,81.749,320.162,38.4,256,38.4S137.028,81.749,120.695,142.234C52.54,152.013,0,210.782,0,281.6 c0,77.636,63.164,140.8,140.8,140.8h38.4c0-9.02,1.852-17.553,4.719-25.6c-16.418,0-35.806,0-43.119,0 c-63.625,0-115.2-51.576-115.2-115.2s51.576-115.2,115.2-115.2c0.435,0,0.845,0.119,1.28,0.128C148.463,108.945,196.719,64,256,64 s107.537,44.945,113.92,102.528c0.435-0.009,0.845-0.128,1.28-0.128c63.625,0,115.2,51.575,115.2,115.2s-51.575,115.2-115.2,115.2 c-7.313,0-26.701,0-43.119,0c2.867,8.047,4.719,16.58,4.719,25.6h38.4c77.636,0,140.8-63.164,140.8-140.8 C512,210.782,459.46,152.013,391.305,142.234z"/> </g> </g> <g> <g> <path d="M256,371.2c-28.228,0-51.2,22.972-51.2,51.2s22.972,51.2,51.2,51.2s51.2-22.972,51.2-51.2S284.228,371.2,256,371.2z M256,448c-14.123,0-25.6-11.477-25.6-25.6s11.477-25.6,25.6-25.6s25.6,11.477,25.6,25.6S270.123,448,256,448z"/> </g> </g> <g> <g> <path d="M183.603,350.003l18.099,18.099c28.996-28.996,79.599-28.996,108.604,0l18.099-18.099 C289.749,311.296,222.251,311.296,183.603,350.003z"/> </g> </g> <g> <g> <path d="M256,268.8c-41.028,0-79.599,15.974-108.604,44.996l18.099,18.099C189.679,307.729,221.824,294.4,256,294.4 c34.176,0,66.321,13.329,90.496,37.504l18.099-18.099C335.599,284.774,297.028,268.8,256,268.8z"/> </g> </g> <g> <g> <path d="M111.181,277.572l18.099,18.099c69.896-69.845,183.543-69.845,253.449,0l18.099-18.099 C320.981,197.726,191.027,197.726,111.181,277.572z"/> </g> </g> </g>
</svg>