<?xml version="1.0" encoding="UTF-8" standalone="no" ?>
<!DOCTYPE svg PUBLIC "-//W3C//DTD SVG 1.1//EN" "http://www.w3.org/Graphics/SVG/1.1/DTD/svg11.dtd">
<svg xmlns="http://www.w3.org/2000/svg" xmlns:xlink="http://www.w3.org/1999/xlink" version="1.1" width="1080" height="1080" viewBox="0 0 1080 1080" xml:space="preserve">
<desc>Created with Fabric.js 5.2.4</desc>
<defs>
</defs>
<rect x="0" y="0" width="100%" height="100%" fill="transparent"></rect>
<g transform="matrix(1 0 0 1 540 540)" id="1d9e18a2-2f53-4cef-99f3-bf95b659a693"  >
</g>
<g transform="matrix(1 0 0 1 540 540)" id="8d1e3624-e8c4-4214-8015-86ed1604903f"  >
<rect style="stroke: none; stroke-width: 1; stroke-dasharray: none; stroke-linecap: butt; stroke-dashoffset: 0; stroke-linejoin: miter; stroke-miterlimit: 4; fill: rgb(255,255,255); fill-rule: nonzero; opacity: 1; visibility: hidden;" vector-effect="non-scaling-stroke"  x="-540" y="-540" rx="0" ry="0" width="1080" height="1080" />
</g>
<g transform="matrix(1 0 0 1 525.55 499.65)"  >
<path style="stroke: none; stroke-width: 1; stroke-dasharray: none; stroke-linecap: butt; stroke-dashoffset: 0; stroke-linejoin: miter; stroke-miterlimit: 4; fill: rgb(183,183,183); fill-rule: nonzero; opacity: 1;" vector-effect="non-scaling-stroke"  transform=" translate(20.18, -160.76)" d="M 0 0 C 7.84746012 5.42943365 13.54827252 13.35011036 15.75390625 22.6796875 C 16.05677476 27.3692644 15.99724234 31.98870836 15.75390625 36.6796875 C 16.32496094 36.76605469 16.89601563 36.85242188 17.484375 36.94140625 C 27.88302847 38.74339866 37.46083783 42.75982775 46.75390625 47.6796875 C 46.75390625 50.6796875 46.75390625 50.6796875 44.48046875 53.0703125 C 43.4488331 54.02583832 42.41480406 54.97878402 41.37890625 55.9296875 C 25.412884 71.30973539 15.28400681 92.90225881 14.55078125 115.2109375 C 14.13843203 141.21503649 21.33773267 164.2911624 39.45703125 183.37890625 C 40.215 184.13816406 40.97296875 184.89742187 41.75390625 185.6796875 C 42.511875 186.44925781 43.26984375 187.21882812 44.05078125 188.01171875 C 64.44798538 207.57570376 90.56310779 211.6796875 117.75390625 211.6796875 C 117.75390625 227.5196875 117.75390625 243.3596875 117.75390625 259.6796875 C 121.05390625 260.0096875 124.35390625 260.3396875 127.75390625 260.6796875 C 136.93141512 263.65285637 143.2883304 269.43403049 147.62890625 277.9296875 C 151.54417573 286.27880519 152.09996158 295.06565186 149.953125 304.01953125 C 146.63109515 312.88969344 140.88875133 319.7668953 132.44140625 324.1796875 C 127.96847577 325.99918464 124.57340301 326.80406011 119.75781727 326.81390858 C 118.23891934 326.82059534 118.23891934 326.82059534 116.6893366 326.82741719 C 115.57875204 326.82723283 114.46816747 326.82704847 113.32392883 326.82685852 C 112.14263104 326.83053521 110.96133325 326.8342119 109.74423856 326.838 C 106.46418879 326.84711855 103.18416843 326.85173471 99.90410817 326.85438931 C 96.36681475 326.85829615 92.82953577 326.86787418 89.29225159 326.87660217 C 80.74949716 326.89635518 72.20674157 326.90643102 63.66397002 326.91532996 C 59.6399999 326.9197145 55.61603108 326.92508086 51.592062 326.93031883 C 38.21396947 326.94732945 24.83587775 326.96182359 11.45777607 326.96906757 C 7.98690604 326.97097743 4.51603602 326.97289777 1.04516602 326.97485352 C 0.18251053 326.97533726 -0.68014495 326.975821 -1.56894151 326.9763194 C -15.54327831 326.98461966 -29.51752952 327.00995724 -43.49182894 327.04243419 C -57.84202823 327.07551263 -72.19218402 327.09351702 -86.54242164 327.09671181 C -94.59832399 327.09887611 -102.65410149 327.10761307 -110.70996666 327.13317299 C -117.57064388 327.15489067 -124.4311659 327.16292516 -131.2918736 327.15320621 C -134.79077311 327.14866464 -138.2893525 327.15053892 -141.78820801 327.16996765 C -145.58614165 327.18763537 -149.38326415 327.18060425 -153.18119812 327.16743469 C -154.83034455 327.18388856 -154.83034455 327.18388856 -156.51280707 327.20067483 C -166.64998157 327.11586317 -174.85878963 323.67736587 -182.24609375 316.6796875 C -188.13819698 309.7344708 -191.98937282 301.06357532 -191.5234375 291.80078125 C -190.22803677 281.89370243 -186.76728712 273.53505978 -179.140625 266.828125 C -172.87760985 262.32762208 -165.98268858 259.6796875 -158.24609375 259.6796875 C -158.25053497 258.50887634 -158.2549762 257.33806519 -158.259552 256.1317749 C -158.30037402 245.01261169 -158.33020911 233.89346399 -158.34971809 222.7742424 C -158.3600855 217.05991199 -158.37411342 211.34564283 -158.39697266 205.63134766 C -158.41895551 200.10052146 -158.43071508 194.56975359 -158.43584824 189.03888702 C -158.43949892 186.94534641 -158.44662521 184.85180842 -158.45755386 182.75829315 C -158.54105492 166.07513089 -158.47588929 148.84719667 -154.12109375 132.6171875 C -153.80241333 131.39950684 -153.80241333 131.39950684 -153.47729492 130.15722656 C -147.65191931 108.99707579 -137.06160347 90.75922934 -122.24609375 74.6796875 C -120.95251953 73.26236328 -120.95251953 73.26236328 -119.6328125 71.81640625 C -103.45566566 54.87234282 -82.0459927 42.31973501 -59.24609375 36.6796875 C -57.92609375 36.6796875 -56.60609375 36.6796875 -55.24609375 36.6796875 C -55.57609375 35.6896875 -55.90609375 34.6996875 -56.24609375 33.6796875 C -56.99901884 22.95050501 -53.44071427 14.05671525 -46.71875 5.8046875 C -34.50538036 -7.52943842 -15.26571452 -8.97358523 0 0 Z" stroke-linecap="round" />
</g>
<g transform="matrix(1 0 0 1 652.01 460.02)"  >
<path style="stroke: rgb(255,255,255); stroke-width: 2; stroke-dasharray: none; stroke-linecap: butt; stroke-dashoffset: 0; stroke-linejoin: miter; stroke-miterlimit: 4; fill: rgb(255,0,0); fill-rule: nonzero; opacity: 1;" vector-effect="non-scaling-stroke"  transform=" translate(45.35, -59)" d="M 0 0 C 1.55867634 1.33455294 3.10138712 2.68805202 4.625 4.0625 C 5.32109375 4.66578125 6.0171875 5.2690625 6.734375 5.890625 C 21.23397464 19.26622467 26.9124157 37.78121912 28.91015625 56.7734375 C 29.6963694 76.80478133 21.76090944 95.36137661 8.625 110.0625 C -4.84197961 124.3947386 -22.78264433 131.87733174 -42.21875 133.265625 C -62.96446171 133.63172579 -81.91963479 126.58086618 -97.06640625 112.33203125 C -98.20916016 111.20861328 -98.20916016 111.20861328 -99.375 110.0625 C -100.00277344 109.44761719 -100.63054687 108.83273437 -101.27734375 108.19921875 C -115.34966385 93.29723806 -119.96137934 74.27331838 -119.64453125 54.3046875 C -118.94062349 35.21248977 -109.99761882 17.27562126 -96.375 4.0625 C -69.58820495 -19.77990203 -28.52040593 -22.09571784 0 0 Z" stroke-linecap="round" />
</g>
<g transform="matrix(1 0 0 1 525.6 715.12)"  >
<path style="stroke: none; stroke-width: 1; stroke-dasharray: none; stroke-linecap: butt; stroke-dashoffset: 0; stroke-linejoin: miter; stroke-miterlimit: 4; fill: rgb(183,183,183); fill-rule: nonzero; opacity: 1;" vector-effect="non-scaling-stroke"  transform=" translate(-39.21, -31.67)" d="M 0 0 C 0.84732193 0.00359528 1.69464386 0.00719055 2.56764221 0.01089478 C 3.89922363 0.01067574 3.89922363 0.01067574 5.25770569 0.01045227 C 8.20666404 0.01115174 11.15556006 0.01894568 14.10450745 0.02676392 C 16.14332037 0.02862798 18.18213374 0.03005194 20.22094727 0.03105164 C 25.59844693 0.03487776 30.97591978 0.04470884 36.35340881 0.05575562 C 41.83619321 0.06596771 47.31898192 0.07054882 52.80177307 0.07559204 C 63.56806093 0.08633103 74.33432883 0.10340858 85.1006012 0.12442017 C 88.53983948 13.38478503 88.44520164 26.49270708 81.6396637 38.75723267 C 80.20895551 40.95776353 78.6985926 43.04351927 77.1006012 45.12442017 C 76.2343512 46.42379517 76.2343512 46.42379517 75.3506012 47.74942017 C 66.75145845 56.82629306 54.69623642 62.43427766 42.27638245 63.32754517 C 27.5707919 63.56829153 15.12196113 58.78234869 4.4287262 48.64395142 C -4.94478438 38.49979987 -8.95099465 26.83171551 -8.8993988 13.12442017 C -7.52644736 0.01348826 -7.52644736 0.01348826 0 0 Z" stroke-linecap="round" />
</g>
</svg>