<?xml version="1.0" encoding="UTF-8" standalone="no" ?>
<!DOCTYPE svg PUBLIC "-//W3C//DTD SVG 1.1//EN" "http://www.w3.org/Graphics/SVG/1.1/DTD/svg11.dtd">
<svg xmlns="http://www.w3.org/2000/svg" xmlns:xlink="http://www.w3.org/1999/xlink" version="1.1" width="1080" height="1080" viewBox="0 0 1080 1080" xml:space="preserve">
<desc>Created with Fabric.js 5.2.4</desc>
<defs>
</defs>
<g transform="matrix(1 0 0 1 540 540)" id="d8e8885e-fe2a-48e8-a535-b679133cf547"  >
<rect style="stroke: none; stroke-width: 1; stroke-dasharray: none; stroke-linecap: butt; stroke-dashoffset: 0; stroke-linejoin: miter; stroke-miterlimit: 4; fill: rgb(255,255,255); fill-rule: nonzero; opacity: 1; visibility: hidden;" vector-effect="non-scaling-stroke"  x="-540" y="-540" rx="0" ry="0" width="1080" height="1080" />
</g>
<g transform="matrix(1 0 0 1 540 540)" id="a811148f-7762-4e45-899e-7fb779e52c21"  >
</g>
<g transform="matrix(33.33 0 0 33.33 540 540)"  >
<path style="stroke: none; stroke-width: 1; stroke-dasharray: none; stroke-linecap: butt; stroke-dashoffset: 0; stroke-linejoin: miter; stroke-miterlimit: 4; fill: rgb(6,119,255); fill-rule: nonzero; opacity: 0.64;" vector-effect="non-scaling-stroke"  transform=" translate(-12, -12.19)" d="M 20.5691 11.0099 C 19.8091 10.0999 18.8091 9.48994 17.6691 9.23994 C 17.4191 8.08994 16.9591 7.08994 16.3091 6.26994 C 16.2891 6.23994 16.2691 6.20994 16.2491 6.18994 C 14.0591 3.53994 10.4691 3.54994 8.04906 4.91994 C 5.97906 6.09994 4.21906 8.58994 5.13906 12.1599 C 3.01906 12.6799 2.03906 14.5299 2.03906 16.1999 C 2.03906 18.0699 3.25906 20.1799 5.98906 20.3699 L 16.2891 20.3699 C 16.2991 20.3699 16.3191 20.3699 16.3291 20.3699 C 17.7491 20.3699 19.0991 19.8499 20.1391 18.8899 C 22.6591 16.6899 22.3291 13.0799 20.5691 11.0099 Z" stroke-linecap="round" />
</g>
<g transform="matrix(33.33 0 0 33.33 740.52 425.84)"  >
<path style="stroke: none; stroke-width: 1; stroke-dasharray: none; stroke-linecap: butt; stroke-dashoffset: 0; stroke-linejoin: miter; stroke-miterlimit: 4; fill: rgb(45,237,45); fill-rule: nonzero; opacity: 1;" vector-effect="non-scaling-stroke"  transform=" translate(-18.01, -8.77)" d="M 21.2698 8.76001 C 21.2698 9.78001 20.7998 10.7 20.0398 11.3 C 19.4898 11.75 18.7798 12.02 18.0098 12.02 C 16.2198 12.02 14.7598 10.56 14.7598 8.77001 C 14.7598 7.88001 15.1198 7.07001 15.7198 6.48001 L 15.7198 6.47001 C 16.3098 5.88001 17.1198 5.51001 18.0098 5.51001 C 19.8098 5.51001 21.2698 6.97001 21.2698 8.76001 Z" stroke-linecap="round" />
</g>
<g transform="matrix(NaN NaN NaN NaN 0 0)"  >
<g style=""   >
</g>
</g>
<g transform="matrix(NaN NaN NaN NaN 0 0)"  >
<g style=""   >
</g>
</g>
</svg>